<?xml version="1.0" encoding="UTF-8" standalone="no"?>
<svg
   xmlns:serif="http://www.serif.com/"
   xmlns:dc="http://purl.org/dc/elements/1.1/"
   xmlns:cc="http://creativecommons.org/ns#"
   xmlns:rdf="http://www.w3.org/1999/02/22-rdf-syntax-ns#"
   xmlns:svg="http://www.w3.org/2000/svg"
   xmlns="http://www.w3.org/2000/svg"
   xmlns:sodipodi="http://sodipodi.sourceforge.net/DTD/sodipodi-0.dtd"
   xmlns:inkscape="http://www.inkscape.org/namespaces/inkscape"
   inkscape:version="1.0 (4035a4fb49, 2020-05-01)"
   sodipodi:docname="95-alpha.svg"
   id="svg72"
   style="fill-rule:evenodd;clip-rule:evenodd;stroke-linecap:round;stroke-linejoin:round;stroke-miterlimit:1.5;"
   xml:space="preserve"
   version="1.1"
   viewBox="0 0 768 768"
   height="100%"
   width="100%"><metadata
     id="metadata78"><rdf:RDF><cc:Work
         rdf:about=""><dc:format>image/svg+xml</dc:format><dc:type
           rdf:resource="http://purl.org/dc/dcmitype/StillImage" /><dc:title></dc:title></cc:Work></rdf:RDF></metadata><defs
     id="defs76" /><sodipodi:namedview
     inkscape:current-layer="svg72"
     inkscape:window-maximized="1"
     inkscape:window-y="0"
     inkscape:window-x="0"
     inkscape:cy="384"
     inkscape:cx="384"
     inkscape:zoom="1.0208333"
     showgrid="false"
     id="namedview74"
     inkscape:window-height="1014"
     inkscape:window-width="1920"
     inkscape:pageshadow="2"
     inkscape:pageopacity="0"
     guidetolerance="10"
     gridtolerance="10"
     objecttolerance="10"
     borderopacity="1"
     bordercolor="#666666"
     pagecolor="#ffffff" /><g
     serif:id="Artboard1"
     id="Artboard11"><g
       id="g7"><path
         id="path3"
         style="fill:#fff;fill-rule:nonzero;"
         d="M303.326,489.309c-8.772,10.056 -20.361,15.084 -34.767,15.084c-6.133,-0 -12.017,-1.32 -17.651,-3.958c-5.634,-2.639 -9.877,-6.098 -12.73,-10.377l0.107,-0.749c5.705,8.13 15.654,12.195 29.846,12.195c15.832,0 27.992,-6.133 36.478,-18.399c0.357,-5.634 0.535,-10.983 0.535,-16.047c0,-17.829 -2.032,-30.773 -6.097,-38.831c-2.71,-5.349 -6.49,-9.628 -11.34,-12.837c-4.849,-3.21 -9.948,-4.814 -15.297,-4.814c-8.273,-0 -14.816,3.369 -19.63,10.109c-4.814,6.739 -7.221,15.85 -7.221,27.332c0,11.125 2.532,19.915 7.596,26.369c5.063,6.454 11.945,9.681 20.646,9.681c12.837,0 20.539,-6.133 23.106,-18.399l0.856,-4.386c0.357,-1.641 1.248,-2.461 2.674,-2.461c2.283,0 3.424,1.962 3.424,5.884c-0,8.701 -3.513,16.028 -10.537,21.983c-7.025,5.955 -15.637,8.933 -25.835,8.933c-12.124,-0 -22.09,-4.048 -29.899,-12.142c-7.809,-8.094 -11.714,-18.382 -11.714,-30.862c0,-14.05 4.546,-25.87 13.639,-35.462c9.093,-9.592 20.308,-14.388 33.644,-14.388c15.404,-0 27.974,6.258 37.708,18.774c9.735,12.516 14.603,28.687 14.603,48.513c-0,17.401 -3.762,33.394 -11.286,47.978c-7.524,14.584 -18.026,26.227 -31.504,34.927c-13.622,8.843 -27.921,13.265 -42.897,13.265c-4.351,-0 -6.526,-1.141 -6.526,-3.423c0,-1.926 1.569,-3.067 4.707,-3.423c17.972,-1.997 32.503,-8.951 43.592,-20.86c11.09,-11.91 18.347,-28.313 21.77,-49.209Zm-5.456,-57.659c-6.846,-8.202 -14.299,-12.302 -22.358,-12.302c-13.336,-0 -20.004,10.02 -20.004,30.06c0,8.344 1.587,15.404 4.76,21.181c3.174,5.776 7.506,9.485 12.998,11.125l-0,0.749c-6.347,-1.07 -11.411,-4.618 -15.191,-10.644c-3.779,-6.026 -5.669,-13.568 -5.669,-22.625c-0,-10.413 1.997,-18.489 5.99,-24.23c3.994,-5.741 9.628,-8.612 16.902,-8.612c4.707,0 9.111,1.391 13.212,4.172c4.1,2.782 7.221,6.49 9.36,11.126Zm6.739,-22.465c20.326,11.054 30.488,31.344 30.488,60.869c0,30.167 -9.948,55.413 -29.846,75.738c-8.629,8.914 -18.506,15.903 -29.632,20.967c-11.125,5.063 -22.108,7.595 -32.948,7.595l-2.781,-0.107l-0.749,-2.567c17.116,-0 33.055,-4.885 47.818,-14.656c14.192,-9.271 25.281,-21.555 33.269,-36.853c7.987,-15.297 11.981,-31.896 11.981,-49.796c-0,-28.741 -9.2,-48.745 -27.6,-60.013l0,-1.177Z" /><path
         id="path5"
         style="fill:#fff;fill-rule:nonzero;"
         d="M422.175,405.334l59.585,-0c7.131,-0 11.981,-0.517 14.548,-1.551c2.568,-1.034 3.923,-3.085 4.065,-6.151c0.072,-0.785 -0.214,-1.213 -0.856,-1.284c-0.214,0 -0.606,0.285 -1.176,0.856c-0.856,0.784 -1.855,1.177 -2.996,1.177c-3.28,-0 -4.92,-1.605 -4.92,-4.814c-0,-3.281 1.711,-4.921 5.134,-4.921c2.71,-0 5.171,1.355 7.382,4.065c2.21,2.71 3.316,5.705 3.316,8.986c-0,6.989 -3.031,12.106 -9.093,15.351c-6.062,3.245 -15.618,4.867 -28.669,4.867l-36.693,0l0,36.265l1.819,-1.391c1.498,-1.213 2.888,-2.211 4.172,-2.995l-0,-26.209l40.329,-0l13.907,-1.605c5.563,-1.284 10.127,-3.994 13.693,-8.13c3.566,-4.136 5.349,-8.736 5.349,-13.8c-0,-3.566 -0.963,-7.345 -2.889,-11.339l0.642,-0l0.749,1.284c2.496,4.35 3.744,8.344 3.744,11.981c0,7.203 -3.316,13.086 -9.948,17.651c-6.633,4.564 -15.155,6.846 -25.567,6.846l-37.121,0l0,21.823c6.633,-3.495 13.907,-5.242 21.823,-5.242c15.405,0 27.814,4.529 37.227,13.586c9.414,9.057 14.121,20.967 14.121,35.729c0,15.12 -4.903,27.065 -14.709,35.837c-9.806,8.772 -23.16,13.158 -40.062,13.158c-13.835,-0 -25.21,-3.12 -34.125,-9.36c-8.915,-6.241 -14.299,-14.816 -16.153,-25.728l1.391,-0.749c10.483,-5.206 18.328,-9.913 23.534,-14.12c-0.642,3.993 -0.963,7.809 -0.963,11.446c0,9.485 2.407,16.849 7.221,22.09c4.814,5.242 11.607,7.863 20.379,7.863c9.556,-0 17.08,-3.78 22.571,-11.339c5.492,-7.56 8.237,-17.936 8.237,-31.13c0,-12.266 -2.674,-21.68 -8.023,-28.241c-5.348,-6.561 -12.979,-9.842 -22.892,-9.842c-12.909,-0 -23.321,6.133 -31.237,18.4l-6.846,-4.172l-0,-65.148Zm80.124,52.418c6.347,4.065 11.321,9.734 14.923,17.009c3.601,7.274 5.402,15.19 5.402,23.748c-0,16.617 -5.42,30.06 -16.26,40.329c-10.84,10.27 -24.997,15.405 -42.469,15.405c-11.482,-0 -22.18,-3.031 -32.093,-9.093l0,-0.963c10.698,4.564 21.253,6.847 31.665,6.847c17.045,-0 30.613,-4.779 40.704,-14.335c10.091,-9.556 15.137,-22.429 15.137,-38.618c-0,-15.69 -5.67,-28.883 -17.009,-39.581l-0,-0.748Zm-58.943,41.078c-0.713,4.065 -1.07,7.524 -1.07,10.376c-0,5.563 1.622,10.448 4.867,14.656c3.245,4.208 7.72,7.239 13.426,9.093l-0,1.284c-6.348,-0.928 -11.482,-3.834 -15.405,-8.719c-3.922,-4.885 -5.883,-10.822 -5.883,-17.811c-0,-2.924 0.463,-6.133 1.39,-9.628l2.675,0.749Zm42.683,-20.004l-1.177,-1.605c-6.419,-8.415 -14.299,-12.623 -23.642,-12.623c-5.206,-0 -9.663,1.034 -13.371,3.102c-3.709,2.068 -7.738,5.777 -12.089,11.126l-2.353,-1.284c6.775,-10.27 16.118,-15.404 28.027,-15.404c11.696,-0 20.183,5.562 25.46,16.688l-0.855,-0Z" /></g><g
       id="g53"><path
         id="path9"
         style="fill:none;stroke:#bdb6af;stroke-opacity:0.06;stroke-width:4.04px;"
         d="M211.985,115.759c-0,-18.377 -14.921,-33.297 -33.298,-33.297l-66.595,-0c-18.378,-0 -33.298,14.92 -33.298,33.297l0,66.596c0,18.377 14.92,33.297 33.298,33.297l66.595,0c18.377,0 33.298,-14.92 33.298,-33.297l-0,-66.596Z" /><path
         id="path11"
         style="fill:none;stroke:#bdb6af;stroke-opacity:0.06;stroke-width:4.04px;"
         d="M178.687,132.408c0,-9.189 -7.46,-16.649 -16.649,-16.649l-33.297,0c-9.189,0 -16.649,7.46 -16.649,16.649l-0,33.298c-0,9.189 7.46,16.649 16.649,16.649l33.297,-0c9.189,-0 16.649,-7.46 16.649,-16.649l0,-33.298Z" /><path
         id="path13"
         style="fill:none;stroke:#bdb6af;stroke-opacity:0.06;stroke-width:4.04px;"
         d="M211.985,578.423c-0,-18.377 -14.921,-33.297 -33.298,-33.297l-66.595,-0c-18.378,-0 -33.298,14.92 -33.298,33.297l0,66.596c0,18.377 14.92,33.297 33.298,33.297l66.595,0c18.377,0 33.298,-14.92 33.298,-33.297l-0,-66.596Z" /><path
         id="path15"
         style="fill:none;stroke:#bdb6af;stroke-opacity:0.06;stroke-width:4.04px;"
         d="M178.687,595.072c0,-9.189 -7.46,-16.649 -16.649,-16.649l-33.297,0c-9.189,0 -16.649,7.46 -16.649,16.649l-0,33.298c-0,9.189 7.46,16.649 16.649,16.649l33.297,-0c9.189,-0 16.649,-7.46 16.649,-16.649l0,-33.298Z" /><path
         id="path17"
         style="fill:none;stroke:#bdb6af;stroke-opacity:0.06;stroke-width:4.04px;"
         d="M699.143,115.759c0,-18.377 -14.92,-33.297 -33.297,-33.297l-66.596,-0c-18.377,-0 -33.297,14.92 -33.297,33.297l-0,66.596c-0,18.377 14.92,33.297 33.297,33.297l66.596,0c18.377,0 33.297,-14.92 33.297,-33.297l0,-66.596Z" /><path
         id="path19"
         style="fill:none;stroke:#bdb6af;stroke-opacity:0.06;stroke-width:4.04px;"
         d="M665.846,132.408c-0,-9.189 -7.46,-16.649 -16.649,-16.649l-33.298,0c-9.188,0 -16.649,7.46 -16.649,16.649l0,33.298c0,9.189 7.461,16.649 16.649,16.649l33.298,-0c9.189,-0 16.649,-7.46 16.649,-16.649l-0,-33.298Z" /><path
         id="path21"
         style="fill:none;stroke:#bdb6af;stroke-opacity:0.06;stroke-width:4.36px;"
         d="M92.065,275.009l151.528,2.895l-0.965,-21.233l27.989,0l-1.93,19.303l26.059,0" /><path
         id="path23"
         style="fill:none;stroke:#bdb6af;stroke-opacity:0.06;stroke-width:4.36px;"
         d="M339.143,256.671l126.434,0" /><path
         id="path25"
         style="fill:none;stroke:#bdb6af;stroke-opacity:0.06;stroke-width:4.36px;"
         d="M526.382,215.652l-0,41.019l-26.059,0l-0,21.233l16.407,0l0,52.118l31.85,0l0,133.191" /><path
         id="path27"
         style="fill:none;stroke:#bdb6af;stroke-opacity:0.06;stroke-width:4.36px;"
         d="M604.559,399.513l-125.47,0l0,13.512l-76.729,0l0,50.188l14.96,-0l-0,57.909l31.85,-0l-0,101.34" /><path
         id="path29"
         style="fill:none;stroke:#bdb6af;stroke-opacity:0.06;stroke-width:4.36px;"
         d="M604.559,510.988l-309.813,-0" /><path
         id="path31"
         style="fill:none;stroke:#bdb6af;stroke-opacity:0.06;stroke-width:4.36px;"
         d="M294.746,482.516l-116.059,-0l0,-19.303l-17.131,-0l-0,28.954l-22.199,0l0,-28.954l-47.292,-0" /><path
         id="path33"
         style="fill:none;stroke:#bdb6af;stroke-opacity:0.06;stroke-width:4.36px;"
         d="M92.065,385.036l80.107,-0l0,46.327l95.55,-0l-0,159.25" /><path
         id="path35"
         style="fill:none;stroke:#bdb6af;stroke-opacity:0.06;stroke-width:4.36px;"
         d="M253.245,339.433l59.839,-0l-0,45.603l89.276,-0" /><path
         id="path37"
         style="fill:none;stroke:#bdb6af;stroke-opacity:0.06;stroke-width:4.36px;"
         d="M440.484,339.433l59.839,-0" /><path
         id="path39"
         style="fill:none;stroke:#bdb6af;stroke-opacity:0.06;stroke-width:4.36px;"
         d="M645.095,263.427l0,49.223" /><path
         id="path41"
         style="fill:none;stroke:#bdb6af;stroke-opacity:0.06;stroke-width:4.36px;"
         d="M645.095,362.234l0,12.185" /><path
         id="path43"
         style="fill:none;stroke:#bdb6af;stroke-opacity:0.06;stroke-width:4.36px;"
         d="M645.095,416.886l0,95.549" /><path
         id="path45"
         style="fill:none;stroke:#bdb6af;stroke-opacity:0.06;stroke-width:4.36px;"
         d="M645.095,590.613l-100.375,-0l-0,66.595l27.024,-0l-0,-110.992l36.675,-0l0,68.525" /><path
         id="path47"
         style="fill:none;stroke:#bdb6af;stroke-opacity:0.06;stroke-width:4.36px;"
         d="M110.403,339.433l82.037,-0l0,-26.783l-47.292,-0l92.654,-0" /><path
         id="path49"
         style="fill:none;stroke:#bdb6af;stroke-opacity:0.06;stroke-width:4.36px;"
         d="M315.979,111.899l0,79.142l45.362,-0l0,-35.71l0,120.643l54.049,0l-0,-79.142l29.919,-0l0,22.198l-14.477,0l0,-51.153" /><path
         id="path51"
         style="fill:none;stroke:#bdb6af;stroke-opacity:0.06;stroke-width:4.36px;"
         d="M382.575,166.912l151.528,0l-0,56.944l35.71,0l0,88.794" /></g><g
       id="v2"><path
         id="path55"
         style="fill:none;stroke:#a98f6e;stroke-width:5px;"
         d="M487.512,160.905c0,-0 -103.041,142.158 -103.041,223.587l0,220.552c0,9.933 3.07,19.624 8.791,27.745c9.905,14.099 21.795,25.943 36.649,34.454c0.94,0.523 1.446,1.584 1.261,2.645c-0.186,1.06 -1.023,1.886 -2.085,2.058c-10.498,2.054 -25.306,5.91 -56.049,6.37" /><path
         id="path57"
         style="fill:none;stroke:#a98f6e;stroke-width:5px;"
         d="M256.812,147.287c-0,0 25.571,36.439 51.978,83.281" /><path
         id="path59"
         style="fill:none;stroke:#a98f6e;stroke-width:5px;"
         d="M308.79,230.568c0.498,-21.402 33.879,-35.337 48.65,-9.591c14.084,24.551 -9.151,45.669 -31.066,42.324" /><path
         id="path61"
         style="fill:none;stroke:#a98f6e;stroke-width:5px;"
         d="M326.374,263.301c21.551,42.353 39.754,87.962 39.754,121.191l0,220.552c0,9.933 -3.07,19.624 -8.79,27.745c-9.938,14.146 -21.875,26.022 -36.797,34.539c-0.924,0.511 -1.432,1.543 -1.275,2.588c0.158,1.044 0.948,1.88 1.981,2.097c9.283,2.055 21.318,5.847 51.791,6.303" /><path
         id="path63"
         style="fill:none;stroke:#a98f6e;stroke-width:5px;stroke-dasharray:175,200,0,0;"
         d="M451.618,129.224c-0.142,-1.289 -0.215,-2.601 -0.215,-3.93c0,-19.654 15.957,-35.61 35.61,-35.61c19.654,-0 35.611,15.956 35.611,35.61c-0,19.654 -15.957,35.611 -35.611,35.611c-1.328,-0 -2.64,-0.073 -3.93,-0.215l0,-31.466l-31.465,0Z" /><ellipse
         id="ellipse65"
         style="fill:none;stroke:#a98f6e;stroke-width:5px;stroke-dasharray:325,30,0,0;"
         ry="10.419"
         rx="117.069"
         cy="146.214"
         cx="372.945" /><path
         id="path67"
         style="fill:none;stroke:#a98f6e;stroke-width:5px;"
         d="M335.262,182.178c-0,-0 16.927,1.627 37.776,17.25c20.848,15.622 53.589,53.391 80.336,13.241" /></g></g><g
     id="v1" /></svg>
