<?xml version="1.0" encoding="UTF-8" standalone="no"?>
<svg
   version="1.1"
   viewBox="0 0 1765.8 1766"
   id="svg38"
   sodipodi:docname="default-logo.svg"
   inkscape:version="1.3.2 (091e20ef0f, 2023-11-25, custom)"
   xmlns:inkscape="http://www.inkscape.org/namespaces/inkscape"
   xmlns:sodipodi="http://sodipodi.sourceforge.net/DTD/sodipodi-0.dtd"
   xmlns="http://www.w3.org/2000/svg"
   xmlns:svg="http://www.w3.org/2000/svg">
  <sodipodi:namedview
     id="namedview38"
     pagecolor="#ffffff"
     bordercolor="#000000"
     borderopacity="0.25"
     inkscape:showpageshadow="2"
     inkscape:pageopacity="0.0"
     inkscape:pagecheckerboard="0"
     inkscape:deskcolor="#d1d1d1"
     inkscape:zoom="0.65911665"
     inkscape:cx="883"
     inkscape:cy="883"
     inkscape:window-width="2560"
     inkscape:window-height="1368"
     inkscape:window-x="0"
     inkscape:window-y="0"
     inkscape:window-maximized="1"
     inkscape:current-layer="svg38" />
  <defs
     id="defs1">
    <style
       id="style1">
      .cls-1 {
        fill: #bdb6af;
      }

      .cls-2 {
        fill: #202026;
      }

      .cls-3 {
        fill: #fff;
      }

      .cls-4 {
        opacity: .06;
      }

      .cls-5 {
        fill: #a98f6e;
      }
    </style>
  </defs>
  <!-- Generator: Adobe Illustrator 28.6.0, SVG Export Plug-In . SVG Version: 1.2.0 Build 709)  -->
  <g
     id="g38">
    <g
       id="Livello_1">
      <g
         id="Artboard11">
        <g
           id="g23">
          <g
             class="cls-4"
             id="g1">
            <path
               class="cls-1"
               d="M563.08,606.23h-108.82c-31.82,0-57.71-25.89-57.71-57.71v-108.82c0-31.82,25.89-57.71,57.71-57.71h108.82c31.82,0,57.71,25.89,57.71,57.71v108.82c0,31.82-25.89,57.71-57.71,57.71ZM454.27,388.6c-28.18,0-51.11,22.93-51.11,51.11v108.82c0,28.18,22.93,51.11,51.11,51.11h108.82c28.18,0,51.11-22.93,51.11-51.11v-108.82c0-28.18-22.93-51.11-51.11-51.11h-108.82Z"
               id="path1" />
          </g>
          <g
             class="cls-4"
             id="g2">
            <path
               class="cls-1"
               d="M535.88,551.82h-54.41c-16.82,0-30.5-13.68-30.5-30.5v-54.41c0-16.82,13.68-30.5,30.5-30.5h54.41c16.82,0,30.5,13.68,30.5,30.5v54.41c0,16.82-13.68,30.5-30.5,30.5ZM481.47,443.01c-13.18,0-23.9,10.72-23.9,23.9v54.41c0,13.18,10.72,23.9,23.9,23.9h54.41c13.18,0,23.9-10.72,23.9-23.9v-54.41c0-13.18-10.72-23.9-23.9-23.9h-54.41Z"
               id="path2" />
          </g>
          <g
             class="cls-4"
             id="g3">
            <path
               class="cls-1"
               d="M563.08,1362.22h-108.82c-31.82,0-57.71-25.89-57.71-57.71v-108.82c0-31.82,25.89-57.71,57.71-57.71h108.82c31.82,0,57.71,25.89,57.71,57.71v108.82c0,31.82-25.89,57.71-57.71,57.71ZM454.27,1144.59c-28.18,0-51.11,22.93-51.11,51.11v108.82c0,28.18,22.93,51.11,51.11,51.11h108.82c28.18,0,51.11-22.93,51.11-51.11v-108.82c0-28.18-22.93-51.11-51.11-51.11h-108.82Z"
               id="path3" />
          </g>
          <g
             class="cls-4"
             id="g4">
            <path
               class="cls-1"
               d="M535.88,1307.81h-54.41c-16.82,0-30.5-13.68-30.5-30.5v-54.41c0-16.82,13.68-30.5,30.5-30.5h54.41c16.82,0,30.5,13.68,30.5,30.5v54.41c0,16.82-13.68,30.5-30.5,30.5ZM481.47,1198.99c-13.18,0-23.9,10.72-23.9,23.9v54.41c0,13.18,10.72,23.9,23.9,23.9h54.41c13.18,0,23.9-10.72,23.9-23.9v-54.41c0-13.18-10.72-23.9-23.9-23.9h-54.41Z"
               id="path4" />
          </g>
          <g
             class="cls-4"
             id="g5">
            <path
               class="cls-1"
               d="M1359.09,606.23h-108.82c-31.82,0-57.71-25.89-57.71-57.71v-108.82c0-31.82,25.89-57.71,57.71-57.71h108.82c31.82,0,57.71,25.89,57.71,57.71v108.82c0,31.82-25.89,57.71-57.71,57.71ZM1250.27,388.6c-28.18,0-51.11,22.93-51.11,51.11v108.82c0,28.18,22.93,51.11,51.11,51.11h108.82c28.18,0,51.11-22.93,51.11-51.11v-108.82c0-28.18-22.93-51.11-51.11-51.11h-108.82Z"
               id="path5" />
          </g>
          <g
             class="cls-4"
             id="g6">
            <path
               class="cls-1"
               d="M1331.89,551.82h-54.41c-16.82,0-30.5-13.68-30.5-30.5v-54.41c0-16.82,13.68-30.5,30.5-30.5h54.41c16.82,0,30.5,13.68,30.5,30.5v54.41c0,16.82-13.68,30.5-30.5,30.5ZM1277.48,443.01c-13.18,0-23.9,10.72-23.9,23.9v54.41c0,13.18,10.72,23.9,23.9,23.9h54.41c13.18,0,23.9-10.72,23.9-23.9v-54.41c0-13.18-10.72-23.9-23.9-23.9h-54.41Z"
               id="path6" />
          </g>
          <g
             class="cls-4"
             id="g7">
            <path
               class="cls-1"
               d="M669.14,708.21s-.05,0-.07,0l-247.59-4.73c-1.97-.04-3.53-1.66-3.49-3.63.04-1.94,1.62-3.49,3.56-3.49.02,0,.05,0,.07,0l243.79,4.66-1.4-30.9c-.04-.97.31-1.92.98-2.62.67-.7,1.6-1.1,2.58-1.1h45.73c1.01,0,1.97.43,2.64,1.17.68.75,1,1.74.9,2.74l-2.76,27.62h38.64c1.97,0,3.56,1.59,3.56,3.56s-1.59,3.56-3.56,3.56h-42.58c-1.01,0-1.97-.43-2.64-1.17-.68-.75-1-1.74-.9-2.74l2.76-27.62h-38.07l1.41,30.97c.04.98-.32,1.94-1.01,2.65-.67.69-1.59,1.08-2.55,1.08Z"
               id="path7" />
          </g>
          <g
             class="cls-4"
             id="g8">
            <path
               class="cls-1"
               d="M1031.86,673.52h-206.59c-1.97,0-3.56-1.59-3.56-3.56s1.59-3.56,3.56-3.56h206.59c1.97,0,3.56,1.59,3.56,3.56s-1.59,3.56-3.56,3.56Z"
               id="path8" />
          </g>
          <g
             class="cls-4"
             id="g9">
            <path
               class="cls-1"
               d="M1167.48,1011c-1.97,0-3.56-1.59-3.56-3.56v-214.07h-48.48c-1.97,0-3.56-1.59-3.56-3.56v-81.6h-23.25c-1.97,0-3.56-1.59-3.56-3.56v-34.69c0-1.97,1.59-3.56,3.56-3.56h39.02v-63.46c0-1.97,1.59-3.56,3.56-3.56s3.56,1.59,3.56,3.56v67.02c0,1.97-1.59,3.56-3.56,3.56h-39.02v27.57h23.25c1.97,0,3.56,1.59,3.56,3.56v81.6h48.48c1.97,0,3.56,1.59,3.56,3.56v217.63c0,1.97-1.59,3.56-3.56,3.56Z"
               id="path9" />
          </g>
          <g
             class="cls-4"
             id="g10">
            <path
               class="cls-1"
               d="M1005.05,1271.21c-1.97,0-3.56-1.59-3.56-3.56v-162.03h-48.48c-1.97,0-3.56-1.59-3.56-3.56v-91.06h-20.88c-1.97,0-3.56-1.59-3.56-3.56v-82.01c0-1.97,1.59-3.56,3.56-3.56h121.81v-18.52c0-1.97,1.59-3.56,3.56-3.56h205.02c1.97,0,3.56,1.59,3.56,3.56s-1.59,3.56-3.56,3.56h-201.45v18.52c0,1.97-1.59,3.56-3.56,3.56h-121.81v74.88h20.88c1.97,0,3.56,1.59,3.56,3.56v91.06h48.48c1.97,0,3.56,1.59,3.56,3.56v165.59c0,1.97-1.59,3.56-3.56,3.56Z"
               id="path10" />
          </g>
          <g
             class="cls-4"
             id="g11">
            <path
               class="cls-1"
               d="M1258.95,1089.07h-506.23c-1.97,0-3.56-1.59-3.56-3.56s1.59-3.56,3.56-3.56h506.23c1.97,0,3.56,1.59,3.56,3.56s-1.59,3.56-3.56,3.56Z"
               id="path11" />
          </g>
          <g
             class="cls-4"
             id="g12">
            <path
               class="cls-1"
               d="M535.09,1058.31h-36.27c-1.97,0-3.56-1.59-3.56-3.56v-43.75h-73.71c-1.97,0-3.56-1.59-3.56-3.56s1.59-3.56,3.56-3.56h77.27c1.97,0,3.56,1.59,3.56,3.56v43.75h29.15v-43.75c0-1.97,1.59-3.56,3.56-3.56h27.99c1.97,0,3.56,1.59,3.56,3.56v27.98h186.08c1.97,0,3.56,1.59,3.56,3.56s-1.59,3.56-3.56,3.56h-189.64c-1.97,0-3.56-1.59-3.56-3.56v-27.98h-20.87v43.75c0,1.97-1.59,3.56-3.56,3.56Z"
               id="path12" />
          </g>
          <g
             class="cls-4"
             id="g13">
            <path
               class="cls-1"
               d="M708.56,1219.17c-1.97,0-3.56-1.59-3.56-3.56v-256.65h-152.56c-1.97,0-3.56-1.59-3.56-3.56v-72.14h-127.33c-1.97,0-3.56-1.59-3.56-3.56s1.59-3.56,3.56-3.56h130.89c1.97,0,3.56,1.59,3.56,3.56v72.14h152.56c1.97,0,3.56,1.59,3.56,3.56v260.21c0,1.97-1.59,3.56-3.56,3.56Z"
               id="path13" />
          </g>
          <g
             class="cls-4"
             id="g14">
            <path
               class="cls-1"
               d="M928.56,883.26h-145.88c-1.97,0-3.56-1.59-3.56-3.56v-70.95h-94.21c-1.97,0-3.56-1.59-3.56-3.56s1.59-3.56,3.56-3.56h97.78c1.97,0,3.56,1.59,3.56,3.56v70.95h142.31c1.97,0,3.56,1.59,3.56,3.56s-1.59,3.56-3.56,3.56Z"
               id="path14" />
          </g>
          <g
             class="cls-4"
             id="g15">
            <path
               class="cls-1"
               d="M1088.63,808.75h-97.78c-1.97,0-3.56-1.59-3.56-3.56s1.59-3.56,3.56-3.56h97.78c1.97,0,3.56,1.59,3.56,3.56s-1.59,3.56-3.56,3.56Z"
               id="path15" />
          </g>
          <g
             class="cls-4"
             id="g16">
            <path
               class="cls-1"
               d="M1325.18,764.99c-1.97,0-3.56-1.59-3.56-3.56v-80.43c0-1.97,1.59-3.56,3.56-3.56s3.56,1.59,3.56,3.56v80.43c0,1.97-1.59,3.56-3.56,3.56Z"
               id="path16" />
          </g>
          <g
             class="cls-4"
             id="g17">
            <path
               class="cls-1"
               d="M1325.18,865.92c-1.97,0-3.56-1.59-3.56-3.56v-19.91c0-1.97,1.59-3.56,3.56-3.56s3.56,1.59,3.56,3.56v19.91c0,1.97-1.59,3.56-3.56,3.56Z"
               id="path17" />
          </g>
          <g
             class="cls-4"
             id="g18">
            <path
               class="cls-1"
               d="M1325.18,1091.43c-1.97,0-3.56-1.59-3.56-3.56v-156.13c0-1.97,1.59-3.56,3.56-3.56s3.56,1.59,3.56,3.56v156.13c0,1.97-1.59,3.56-3.56,3.56Z"
               id="path18" />
          </g>
          <g
             class="cls-4"
             id="g19">
            <path
               class="cls-1"
               d="M1205.33,1327.99h-44.16c-1.97,0-3.56-1.59-3.56-3.56v-108.82c0-1.97,1.59-3.56,3.56-3.56h40.59v-68.98c0-1.97,1.59-3.56,3.56-3.56h59.93c1.97,0,3.56,1.59,3.56,3.56v68.98h56.37c1.97,0,3.56,1.59,3.56,3.56s-1.59,3.56-3.56,3.56h-56.37v35.86c0,1.97-1.59,3.56-3.56,3.56s-3.56-1.59-3.56-3.56v-35.86h-52.8v105.25c0,1.97-1.59,3.56-3.56,3.56ZM1164.74,1320.86h37.03v-101.69h-37.03v101.69ZM1208.89,1212.05h52.8v-65.42h-52.8v65.42Z"
               id="path19" />
          </g>
          <g
             class="cls-4"
             id="g20">
            <path
               class="cls-1"
               d="M585.55,808.75h-134.05c-1.97,0-3.56-1.59-3.56-3.56s1.59-3.56,3.56-3.56h130.48v-36.64h-73.71c-1.97,0-3.56-1.59-3.56-3.56s1.59-3.56,3.56-3.56h151.39c1.97,0,3.56,1.59,3.56,3.56s-1.59,3.56-3.56,3.56h-70.56v40.2c0,1.97-1.59,3.56-3.56,3.56Z"
               id="path20" />
          </g>
          <g
             class="cls-4"
             id="g21">
            <path
               class="cls-1"
               d="M949.85,705.06h-88.32c-1.97,0-3.56-1.59-3.56-3.56v-135.22h-70.56c-1.97,0-3.56-1.59-3.56-3.56v-129.32c0-1.97,1.59-3.56,3.56-3.56s3.56,1.59,3.56,3.56v125.75h67v-54.79c0-1.97,1.59-3.56,3.56-3.56s3.56,1.59,3.56,3.56v193.57h81.19v-125.75c0-1.97,1.59-3.56,3.56-3.56h21.67v-43.75c0-1.97,1.59-3.56,3.56-3.56s3.56,1.59,3.56,3.56v43.75h20.09c1.97,0,3.56,1.59,3.56,3.56v36.27c0,1.97-1.59,3.56-3.56,3.56h-23.66c-1.97,0-3.56-1.59-3.56-3.56v-32.71h-18.11v125.75c0,1.97-1.59,3.56-3.56,3.56ZM978.64,604.89h16.53v-29.15h-16.53v29.15Z"
               id="path21" />
          </g>
          <g
             class="cls-4"
             id="g22">
            <path
               class="cls-1"
               d="M1202.18,764.99c-1.97,0-3.56-1.59-3.56-3.56v-141.53h-54.79c-1.97,0-3.56-1.59-3.56-3.56v-89.48h-244.03c-1.97,0-3.56-1.59-3.56-3.56s1.59-3.56,3.56-3.56h247.59c1.97,0,3.56,1.59,3.56,3.56v89.48h54.79c1.97,0,3.56,1.59,3.56,3.56v145.09c0,1.97-1.59,3.56-3.56,3.56Z"
               id="path22" />
          </g>
        </g>
        <g
           id="v2">
          <g
             id="g24">
            <path
               class="cls-5"
               d="M975.6,1337.27c-22.37-12.82-41.52-30.84-58.57-55.1-8.91-12.65-13.62-27.51-13.62-42.98v-107.1h-8.17v107.1c0,17.17,5.22,33.66,15.11,47.68,17.75,25.26,37.76,44.07,61.2,57.49.01,0,.03.02.04.03.02,0,.03.03.02.05,0,.02-.02.03-.04.04-.04,0-.09.01-.13.02-2.08.41-4.26.86-6.57,1.33-17.09,3.52-40.49,8.35-84.29,9-2.26.03-4.06,1.89-4.02,4.15.03,2.23,1.86,4.02,4.08,4.02.02,0,.04,0,.06,0,44.58-.67,69.39-5.78,85.82-9.17,2.27-.47,4.41-.91,6.44-1.31,3.41-.59,6.1-3.26,6.7-6.68.6-3.43-1.03-6.87-4.06-8.57Z"
               id="path23" />
            <path
               class="cls-5"
               d="M1070.09,510.17c-1.83-1.32-4.38-.92-5.71.91-.42.58-42.71,59.12-84.43,133.17-24.53,43.54-44.09,83.87-58.12,119.87-15.49,39.74-24.27,74.34-26.18,103.08h8.18c1.92-27.77,10.51-61.36,25.6-100.08,13.89-35.63,33.27-75.6,57.6-118.79,41.5-73.66,83.55-131.87,83.97-132.45,1.32-1.83.92-4.38-.91-5.7Z"
               id="path24" />
          </g>
          <path
             class="cls-5"
             d="M775.67,631.39c-1.43,0-2.81-.75-3.56-2.08-42.55-75.47-84.3-135.15-84.72-135.74-1.3-1.85-.85-4.39,1-5.69,1.85-1.3,4.39-.85,5.69,1,.42.6,42.39,60.58,85.15,136.42,1.11,1.97.41,4.46-1.55,5.56-.63.36-1.32.53-2,.53Z"
             id="path25" />
          <path
             class="cls-5"
             d="M812.02,685.45c-2.75,0-5.5-.2-8.24-.62-2.23-.34-3.76-2.42-3.42-4.65.34-2.23,2.42-3.76,4.65-3.42,8.79,1.34,17.92.12,26.4-3.52,8.22-3.53,15.34-9.26,20.05-16.13,8.8-12.85,8.86-28.27.16-43.43-9.5-16.57-25.43-23.85-42.62-19.49-7.88,2-15.15,6.35-20.49,12.25-5.56,6.14-8.59,13.39-8.76,20.97-.05,2.22-1.87,3.99-4.08,3.99-.03,0-.06,0-.1,0-2.26-.05-4.04-1.92-3.99-4.18.22-9.57,3.98-18.65,10.87-26.27,6.4-7.08,15.12-12.29,24.54-14.68,9.54-2.42,19.18-1.86,27.87,1.63,9.67,3.88,17.92,11.39,23.84,21.71,5.34,9.31,7.87,18.77,7.53,28.12-.31,8.49-3.09,16.79-8.03,24-10.13,14.78-27.97,23.73-46.18,23.73Z"
             id="path26" />
          <g
             id="g29">
            <path
               class="cls-5"
               d="M864.83,867.2h8.19c-3.2-46.49-25.01-109.72-64.97-188.26-1.02-2.01-3.48-2.81-5.49-1.79-2.01,1.02-2.81,3.48-1.79,5.49,39.33,77.3,60.84,139.28,64.07,184.56Z"
               id="path27" />
            <path
               class="cls-5"
               d="M880.71,1354.83c-43.17-.65-63.22-5.37-77.85-8.83-2.08-.49-4.04-.95-5.95-1.38-.01,0-.03,0-.04,0-.02,0-.03-.02-.04-.04,0-.02,0-.04.02-.05.02,0,.03-.02.05-.03,23.54-13.43,43.64-32.29,61.44-57.63,9.88-14.03,15.11-30.52,15.11-47.69v-107.1h-8.17v107.1c0,15.47-4.71,30.33-13.62,42.99-17.1,24.34-36.33,42.4-58.79,55.22-2.97,1.66-4.63,5.03-4.12,8.4.51,3.37,3.09,6.1,6.42,6.81,1.85.41,3.78.86,5.82,1.35,15,3.54,35.54,8.38,79.6,9.04.02,0,.04,0,.06,0,2.23,0,4.05-1.79,4.08-4.02.03-2.26-1.77-4.11-4.02-4.15Z"
               id="path28" />
            <path
               class="cls-5"
               d="M794.87,1340.96h0,0Z"
               id="path29" />
          </g>
          <path
             class="cls-5"
             d="M1066.88,517.56c-1.86,0-3.74-.08-5.59-.25-2.24-.2-3.91-2.19-3.71-4.43.09-1.02.56-1.97,1.32-2.66.85-.77,1.98-1.15,3.12-1.05,1.59.14,3.23.21,4.86.21,7.3,0,14.39-1.43,21.05-4.25,6.44-2.73,12.22-6.63,17.2-11.6,4.97-4.98,8.88-10.76,11.6-17.2,2.82-6.66,4.25-13.75,4.25-21.05s-1.43-14.39-4.25-21.05c-2.72-6.43-6.63-12.22-11.6-17.2-4.98-4.97-10.76-8.88-17.2-11.6-6.66-2.82-13.75-4.25-21.05-4.25s-14.39,1.43-21.05,4.25c-6.43,2.73-12.22,6.63-17.2,11.6-4.97,4.98-8.88,10.76-11.6,17.2-2.82,6.66-4.25,13.75-4.25,21.05,0,1.99.11,4,.33,5.98.12,1.08-.19,2.15-.87,3-.68.85-1.66,1.39-2.74,1.51-.15.02-.3.03-.45.03-2.08,0-3.83-1.56-4.06-3.64-.25-2.26-.38-4.57-.38-6.87,0-8.4,1.65-16.55,4.9-24.23,1.56-3.69,3.5-7.24,5.75-10.57,2.23-3.3,4.79-6.4,7.6-9.22,2.82-2.82,5.92-5.38,9.22-7.61,3.33-2.25,6.89-4.18,10.58-5.74,7.68-3.25,15.83-4.89,24.23-4.89s16.56,1.65,24.23,4.89c3.69,1.56,7.25,3.5,10.58,5.74,3.3,2.23,6.4,4.79,9.22,7.61,2.82,2.82,5.37,5.92,7.6,9.22,2.25,3.33,4.18,6.89,5.74,10.57,3.25,7.68,4.9,15.83,4.9,24.23s-1.65,16.56-4.9,24.23c-1.56,3.69-3.49,7.25-5.74,10.58-2.23,3.3-4.79,6.4-7.6,9.22-2.82,2.82-5.92,5.38-9.22,7.6-3.33,2.25-6.89,4.18-10.58,5.74-7.68,3.25-15.83,4.9-24.23,4.9Z"
             id="path30" />
          <path
             class="cls-5"
             d="M880.5,510.58c-27.94,0-54.86-.52-80.03-1.56-24.34-1-45.74-2.41-63.63-4.21-1.08-.11-2.06-.63-2.75-1.48-.69-.84-1.01-1.91-.9-2.99.1-1.01.58-1.95,1.33-2.63.85-.77,2-1.15,3.14-1.03,36.16,3.63,88.2,5.72,142.79,5.72h.11c39.58,0,77.55-1.07,109.8-3.09,30.97-1.94,55.24-4.72,68.34-7.84,2.72-.64,5.07-1.33,6.8-2.01-2.25-.88-5.56-1.79-9.59-2.63-9.34-1.97-23.35-3.81-40.52-5.34-17.48-1.56-37.86-2.78-60.57-3.63-23.54-.89-48.53-1.33-74.28-1.33h-.05c-39.63,0-77.62,1.07-109.87,3.09-30.96,1.94-55.23,4.72-68.34,7.84-3.54.84-6.42,1.75-8.12,2.58-.13.06-.25.12-.38.19.02.17.03.33.03.5,0,1.22-.54,2.37-1.48,3.15-.73.6-1.66.94-2.6.94-1.23,0-2.37-.54-3.15-1.48-.44-.52-1.47-1.95-1.46-3.87,0-.99.27-2.02.78-2.9.41-.7.91-1.31,1.6-1.91,1.28-1.11,2.72-1.82,3.96-2.37,2.85-1.23,6.64-2.33,11.93-3.45,9.8-2.06,23.75-3.9,41.47-5.48,36.24-3.23,84.4-5,135.62-5,30.88,0,60.34.63,87.57,1.88,26.02,1.19,49.05,2.93,66.61,5.04,11.94,1.43,21.33,3.02,27.88,4.72,4.3,1.13,7.05,2.16,9.21,3.42,1.11.68,2.38,1.54,3.33,3.15.51.88.79,1.91.79,2.9,0,.99-.28,2.02-.79,2.9-.4.7-.91,1.31-1.59,1.92-1.28,1.11-2.72,1.82-3.96,2.36-2.85,1.23-6.64,2.33-11.93,3.45-9.79,2.06-23.75,3.9-41.47,5.48-36.25,3.23-84.41,5-135.62,5Z"
             id="path31" />
          <path
             class="cls-5"
             d="M967.1,631.37c-26.42,0-52.21-21.51-73.27-39.06-5.57-4.64-10.82-9.02-15.63-12.63-9.4-7.05-24.36-16.75-42.2-22.96-10.68-3.72-17.41-4.42-17.48-4.43-2.24-.22-3.88-2.22-3.66-4.46.22-2.24,2.21-3.89,4.45-3.67,1.18.11,29.2,3.07,63.78,28.98,4.98,3.73,10.31,8.18,15.96,12.89,21.6,18.01,48.48,40.41,73.62,36.77,13.29-1.93,25.01-10.77,35.84-27.01,1.25-1.88,3.79-2.39,5.66-1.14,1.88,1.25,2.39,3.79,1.13,5.66-12.02,18.04-25.96,28.32-41.46,30.57-2.25.33-4.51.48-6.75.48Z"
             id="path32" />
        </g>
      </g>
      <g
         id="g37">
        <path
           class="cls-3"
           d="M1426.63,968.55h-14.98c-4.84-9.47-11.82-17.3-20.82-23.33-10.9-7.29-23.88-10.99-38.58-10.99-9.84,0-18.96,1.71-27.13,5.08-8.23,3.39-15.4,8.22-21.33,14.35-5.87,6.08-10.51,13.35-13.76,21.61-3.25,8.21-4.9,17.25-4.9,26.86s1.65,18.65,4.9,26.86c3.25,8.24,7.86,15.53,13.71,21.69,5.93,6.24,13.12,11.13,21.38,14.54,8.17,3.37,17.29,5.08,27.13,5.08,14.73,0,27.73-3.76,38.63-11.16,8.98-6.1,15.94-13.96,20.78-23.43h14.97c-1.72,3.94-3.75,7.68-6.08,11.2-4.68,7.06-10.43,13.2-17.1,18.26-6.66,5.06-14.4,9.03-22.98,11.81-8.65,2.81-18.14,4.23-28.22,4.23-12.11,0-23.24-2-33.08-5.96-9.82-3.94-18.42-9.48-25.56-16.47-7.1-6.95-12.69-15.3-16.61-24.82-3.93-9.56-5.93-20.27-5.93-31.83s2-22.06,5.94-31.72c3.92-9.59,9.5-17.98,16.6-24.93,7.15-6.99,15.75-12.53,25.56-16.47,9.84-3.95,20.98-5.96,33.08-5.96,10.08,0,19.57,1.43,28.22,4.23,8.58,2.78,16.32,6.76,22.98,11.82,6.66,5.05,12.41,11.19,17.1,18.25,2.33,3.52,4.36,7.26,6.08,11.2Z"
           id="path33" />
        <rect
           class="cls-3"
           x="1223.66"
           y="926.46"
           width="13.53"
           height="151.35"
           id="rect33" />
        <path
           class="cls-3"
           d="M1185.06,984.58v93.23h-13.54v-93.23c0-15.29-4.2-27.58-12.49-36.53-8.49-9.17-20.87-13.82-36.81-13.82s-28.32,4.65-36.81,13.82c-8.29,8.95-12.49,21.24-12.49,36.53v93.23h-13.54v-93.23c0-9.78,1.43-18.63,4.24-26.3,2.72-7.43,6.67-13.8,11.75-18.95,5.04-5.11,11.47-9.12,19.1-11.91,7.94-2.9,17.28-4.37,27.75-4.37s19.8,1.47,27.74,4.37c7.64,2.79,14.07,6.8,19.11,11.91,5.07,5.15,9.02,11.52,11.75,18.95,2.81,7.68,4.24,16.53,4.24,26.3Z"
           id="path34" />
        <path
           class="cls-3"
           d="M1023.75,970.41c3.94,9.66,5.94,20.33,5.94,31.72s-1.99,22.27-5.93,31.83c-3.91,9.52-9.5,17.87-16.61,24.82-7.13,6.98-15.76,12.52-25.66,16.46-9.94,3.96-21.04,5.97-32.97,5.97s-23.24-2-33.09-5.96c-9.82-3.94-18.41-9.48-25.55-16.47-7.11-6.95-12.7-15.3-16.61-24.82-3.94-9.56-5.93-20.27-5.93-31.83s2-22.06,5.94-31.72c3.91-9.59,9.5-17.98,16.6-24.93,7.14-6.99,15.74-12.53,25.55-16.47,9.85-3.95,20.98-5.96,33.09-5.96s23.03,2.01,32.97,5.97c9.9,3.94,18.53,9.48,25.66,16.46,7.1,6.95,12.69,15.34,16.6,24.93ZM1015.63,1002.13c0-9.6-1.64-18.63-4.89-26.86-3.27-8.26-7.9-15.54-13.77-21.61-5.92-6.13-13.09-10.95-21.32-14.35-8.17-3.37-17.3-5.08-27.13-5.08s-18.97,1.71-27.13,5.08c-8.23,3.39-15.41,8.22-21.33,14.35-5.88,6.08-10.51,13.35-13.77,21.61-3.24,8.21-4.89,17.25-4.89,26.86s1.65,18.65,4.89,26.86c3.25,8.24,7.86,15.53,13.71,21.69,5.93,6.24,13.13,11.13,21.38,14.54,8.17,3.37,17.3,5.08,27.14,5.08s18.96-1.71,27.13-5.08c8.26-3.41,15.45-8.3,21.38-14.54,5.84-6.15,10.45-13.44,13.71-21.69,3.25-8.22,4.89-17.26,4.89-26.86Z"
           id="path35" />
        <polygon
           class="cls-3"
           points="854.15 926.46 854.15 937.64 803.06 937.64 803.06 1077.81 789.53 1077.81 789.53 937.64 738.44 937.64 738.44 926.46 854.15 926.46"
           id="polygon35" />
        <path
           class="cls-3"
           d="M716.08,984.58v93.23h-13.54v-93.23c0-15.29-4.2-27.58-12.48-36.53-8.49-9.17-20.88-13.82-36.82-13.82s-28.32,4.65-36.81,13.82c-8.28,8.95-12.48,21.24-12.48,36.53v93.23h-13.54v-93.23c0-9.78,1.42-18.63,4.24-26.3,2.72-7.43,6.67-13.8,11.74-18.95,5.04-5.11,11.47-9.12,19.11-11.91,7.94-2.9,17.28-4.37,27.74-4.37s19.81,1.47,27.75,4.37c7.64,2.79,14.06,6.8,19.1,11.91,5.08,5.15,9.03,11.52,11.75,18.95,2.82,7.68,4.24,16.53,4.24,26.3Z"
           id="path36" />
        <rect
           class="cls-3"
           x="538.27"
           y="926.46"
           width="13.54"
           height="151.35"
           id="rect36" />
        <path
           class="cls-3"
           d="M505.96,1004.8v5.52c-.97,10.27-3.58,19.83-7.77,28.44-4.2,8.62-9.87,16.12-16.87,22.28-7.09,6.25-15.49,11.22-24.95,14.79-9.48,3.57-20.02,5.38-31.32,5.38-12.11,0-23.24-2-33.09-5.96-9.81-3.94-18.41-9.48-25.55-16.47-7.11-6.95-12.7-15.3-16.61-24.82-3.93-9.56-5.93-20.27-5.93-31.83s2-22.06,5.94-31.72c3.91-9.59,9.5-17.98,16.6-24.93,7.15-6.99,15.74-12.53,25.55-16.47,9.85-3.95,20.98-5.96,33.09-5.96,9.43,0,18.37,1.27,26.56,3.76,8.15,2.49,15.61,6.01,22.16,10.48,6.52,4.45,12.22,9.84,16.96,16.03,1.85,2.42,3.55,4.97,5.08,7.63h-16.17c-5.2-7.61-12.05-13.79-20.42-18.4-10.02-5.52-21.51-8.32-34.17-8.32-9.84,0-18.97,1.71-27.13,5.08-8.23,3.39-15.41,8.22-21.33,14.35-5.88,6.08-10.51,13.35-13.77,21.61-3.24,8.21-4.89,17.25-4.89,26.86s1.65,18.65,4.89,26.86c3.25,8.24,7.87,15.53,13.71,21.69,5.93,6.24,13.13,11.13,21.39,14.54,8.16,3.37,17.29,5.08,27.13,5.08,15.54,0,28.97-3.64,39.93-10.81,11.15-7.3,19.22-17.7,23.97-30.92l.59-1.64v-12.27h-64.97v-9.86h81.39Z"
           id="path37" />
      </g>
    </g>
  </g>
</svg>
